<svg xmlns="http://www.w3.org/2000/svg" xmlns:xlink="http://www.w3.org/1999/xlink" viewBox="0 0 366.92 357.84"><defs><style>.cls-1{fill:#f3f4f6;}.cls-2{fill:url(#linear-gradient);}</style><linearGradient id="linear-gradient" x1="82.69" y1="179.06" x2="283.47" y2="179.06" gradientUnits="userSpaceOnUse"><stop offset="0" stop-color="#10b981"/><stop offset="0.09" stop-color="#12b18a"/><stop offset="0.25" stop-color="#179da4"/><stop offset="0.45" stop-color="#1f7bcd"/><stop offset="0.57" stop-color="#2563eb"/><stop offset="0.99" stop-color="#2563eb"/></linearGradient></defs><g id="Layer_2" data-name="Layer 2"><g id="Layer_1-2" data-name="Layer 1"><path class="cls-1" d="M61.09,357.34C27.68,357.34.5,328,.5,292V65.87C.5,29.82,27.68.5,61.09.5H305.83c33.41,0,60.59,29.32,60.59,65.37V292c0,36-27.18,65.36-60.59,65.36Z"/><path d="M305.83,1C339,1,365.92,30.1,365.92,65.87V292c0,35.76-27,64.86-60.09,64.86H61.09C28,356.84,1,327.74,1,292V65.87C1,30.1,28,1,61.09,1H305.83m0-1H61.09C27.35,0,0,29.49,0,65.87V292c0,36.37,27.35,65.86,61.09,65.86H305.83c33.74,0,61.09-29.49,61.09-65.86V65.87C366.92,29.49,339.57,0,305.83,0Z"/><path class="cls-2" d="M255.44,220.3a27.6,27.6,0,0,0-14.3,4.07l.12-.07L223.5,208.15a47.57,47.57,0,0,0-1.35-53.6l.1.14,20.19-20.2a27.24,27.24,0,0,0,13,3.35h0a28,28,0,1,0-28-28h0A27.59,27.59,0,0,0,230.85,123l-.07-.15L210.59,143A46.53,46.53,0,0,0,167,137.08l.32-.11-4.25-7.72a27.83,27.83,0,1,0-14.22,8l-.18,0,4.23,7.69a47,47,0,0,0-16.74,48.69l-.08-.33-4.39,1.87a27.88,27.88,0,1,0,6.72,18.16v-.17h0c-.06-1-.16-2-.31-3l0,.16,4.4-1.87a47.62,47.62,0,0,0,69.9,11.71l-.1.08,17.81,16.19a27.35,27.35,0,0,0-2.72,11.85h0a28,28,0,1,0,28-28h0ZM131.29,110.21a11.55,11.55,0,1,1,11.55,11.55h0a11.57,11.57,0,0,1-11.55-11.55Zm-21,114.91a11.54,11.54,0,1,1,11.54-11.54h0a11.54,11.54,0,0,1-11.54,11.54ZM255.37,98.67a11.55,11.55,0,1,1-11.54,11.54h0a11.55,11.55,0,0,1,11.54-11.54Zm-104.29,84.1h0a31.71,31.71,0,0,1,54.14-22.42h0a31.72,31.72,0,1,1-54.15,22.42Zm104.29,77.51a11.54,11.54,0,1,1,11.55-11.54h0a11.55,11.55,0,0,1-11.55,11.54Z"/></g></g></svg>