<svg xmlns="http://www.w3.org/2000/svg" xmlns:xlink="http://www.w3.org/1999/xlink" viewBox="0 0 826.49 194.59"><defs><style>.cls-1{font-size:160px;font-family:GoogleSansDisplay-Bold, Google Sans Display;font-weight:700;}.cls-2,.cls-3,.cls-4,.cls-5{font-family:GoogleSansDisplay-Regular, Google Sans Display;font-weight:400;}.cls-2{letter-spacing:-0.01em;}.cls-3{letter-spacing:0em;}.cls-4{letter-spacing:-0.01em;}.cls-6{fill:url(#linear-gradient);}</style><linearGradient id="linear-gradient" y1="97.29" x2="200.77" y2="97.29" gradientUnits="userSpaceOnUse"><stop offset="0" stop-color="#10b981"/><stop offset="0.09" stop-color="#12b18a"/><stop offset="0.25" stop-color="#179da4"/><stop offset="0.45" stop-color="#1f7bcd"/><stop offset="0.57" stop-color="#2563eb"/><stop offset="0.99" stop-color="#2563eb"/></linearGradient></defs><g id="Layer_2" data-name="Layer 2"><g id="Layer_1-2" data-name="Layer 1"><text class="cls-1" transform="translate(201.05 147.92)">C<tspan class="cls-2" x="119.36" y="0">p</tspan><tspan class="cls-3" x="211.52" y="0">h</tspan><tspan class="cls-4" x="300.16" y="0">o</tspan><tspan class="cls-5" x="390.88" y="0">rm.</tspan></text><path class="cls-6" d="M172.75,138.53a27.57,27.57,0,0,0-14.3,4.07l.12-.07L140.8,126.38a47.6,47.6,0,0,0-1.34-53.6l.1.14,20.19-20.2a27.21,27.21,0,0,0,13,3.35h0a28,28,0,1,0-28-28h0a27.71,27.71,0,0,0,3.43,13.16l-.08-.15L127.9,61.25a46.55,46.55,0,0,0-43.59-5.94l.33-.11-4.25-7.72a27.83,27.83,0,1,0-14.22,8l-.18,0,4.23,7.69A46.92,46.92,0,0,0,52,100.29a47.44,47.44,0,0,0,1.43,11.57l-.07-.32L49,113.4a27.88,27.88,0,1,0,6.72,18.16v-.17h0a27.31,27.31,0,0,0-.3-3l0,.16,4.39-1.87a47.64,47.64,0,0,0,69.91,11.71l-.1.08,17.81,16.19a27.5,27.5,0,0,0-2.73,11.85h0a28,28,0,1,0,28-28h0ZM48.6,28.44A11.54,11.54,0,1,1,60.14,40h0A11.56,11.56,0,0,1,48.6,28.44Zm-21,114.92A11.54,11.54,0,1,1,39.1,131.81h0a11.57,11.57,0,0,1-11.55,11.55ZM172.68,16.9a11.55,11.55,0,1,1-11.55,11.54h0A11.57,11.57,0,0,1,172.68,16.9ZM68.39,101h0a31.71,31.71,0,0,1,54.13-22.42h0A31.72,31.72,0,1,1,68.39,101Zm104.29,77.51A11.54,11.54,0,1,1,184.22,167h0a11.54,11.54,0,0,1-11.54,11.54Z"/></g></g></svg>