<svg xmlns="http://www.w3.org/2000/svg" xmlns:xlink="http://www.w3.org/1999/xlink" viewBox="0 0 366.92 331.91"><defs><style>.cls-1{fill:#f3f4f6;}.cls-2{fill:url(#linear-gradient);}</style><linearGradient id="linear-gradient" x1="71.69" y1="158.06" x2="272.47" y2="158.06" gradientUnits="userSpaceOnUse"><stop offset="0" stop-color="#10b981"/><stop offset="0.09" stop-color="#12b18a"/><stop offset="0.25" stop-color="#179da4"/><stop offset="0.45" stop-color="#1f7bcd"/><stop offset="0.57" stop-color="#2563eb"/><stop offset="0.99" stop-color="#2563eb"/></linearGradient></defs><g id="Layer_2" data-name="Layer 2"><g id="Layer_1-2" data-name="Layer 1"><rect class="cls-1" x="0.5" y="0.5" width="365.92" height="330.91" rx="60.59"/><path d="M305.83,1a60.16,60.16,0,0,1,60.09,60.09V270.82a60.16,60.16,0,0,1-60.09,60.09H61.09A60.16,60.16,0,0,1,1,270.82V61.09A60.16,60.16,0,0,1,61.09,1H305.83m0-1H61.09A61.09,61.09,0,0,0,0,61.09V270.82a61.09,61.09,0,0,0,61.09,61.09H305.83a61.09,61.09,0,0,0,61.09-61.09V61.09A61.09,61.09,0,0,0,305.83,0Z"/><path class="cls-2" d="M244.44,199.3a27.6,27.6,0,0,0-14.3,4.07l.12-.07L212.5,187.15a47.57,47.57,0,0,0-1.35-53.6l.1.14,20.19-20.2a27.24,27.24,0,0,0,13,3.35h0a28,28,0,1,0-28-28h0A27.59,27.59,0,0,0,219.85,102l-.07-.15L199.59,122A46.53,46.53,0,0,0,156,116.08l.32-.11-4.25-7.72a27.83,27.83,0,1,0-14.22,8l-.18,0,4.23,7.69a47,47,0,0,0-16.74,48.69l-.08-.33-4.39,1.87a27.88,27.88,0,1,0,6.72,18.16v-.17h0c-.06-1-.16-2-.31-3l0,.16,4.4-1.87a47.62,47.62,0,0,0,69.9,11.71l-.1.08,17.81,16.19a27.35,27.35,0,0,0-2.72,11.85h0a28,28,0,1,0,28-28h0ZM120.29,89.21a11.55,11.55,0,1,1,11.55,11.55h0a11.57,11.57,0,0,1-11.55-11.55Zm-21,114.91a11.54,11.54,0,1,1,11.54-11.54h0a11.54,11.54,0,0,1-11.54,11.54ZM244.37,77.67a11.55,11.55,0,1,1-11.54,11.54h0a11.55,11.55,0,0,1,11.54-11.54Zm-104.29,84.1h0a31.71,31.71,0,0,1,54.14-22.42h0a31.72,31.72,0,1,1-54.15,22.42Zm104.29,77.51a11.54,11.54,0,1,1,11.55-11.54h0a11.55,11.55,0,0,1-11.55,11.54Z"/></g></g></svg>